<svg id="Layer_1" data-name="Layer 1" xmlns="http://www.w3.org/2000/svg" viewBox="0 0 256 249.6">
  <g>
    <g>
      <path d="M238.8,41.89c.78,0,.78,0,.78.78v31.8c-.13,0-.26,0-.38,0a48.47,48.47,0,0,0-20.27,4.33,45.94,45.94,0,0,0-24.1,25.51,52,52,0,0,0-2.8,28.41,47.92,47.92,0,0,0,10.89,23.62c8.57,10,19.55,15.4,32.66,16.49,1.33.11,2.67.15,4,.22v34.7A90,90,0,0,1,220,205.59a83.86,83.86,0,0,1-20.61-7.45,81.68,81.68,0,0,1-20.47-15.08c-1.06-1.06-2.08-2.16-3.12-3.25,0-.05,0-.11-.08-.08s0,.09,0,.14.1.28.16.42l10.23,24.06c.27.62.27.62-.39.62q-18.94,0-37.88,0a.7.7,0,0,1-.79-.55q-6.17-16.05-12.35-32.09c-.15-.39-.29-.57-.77-.57h-66a.65.65,0,0,0-.72.49Q61,188.34,54.83,204.4A.74.74,0,0,1,54,205c-12.31,0-25.26,0-37.58,0-.22,0,9.37-22.05,13.94-32.76a1.19,1.19,0,0,1,.59-.75q13.79-6.12,27.83-11.6,16.52-6.43,33.34-12,13.63-4.51,27.42-8.49,12.12-3.49,24.33-6.6c3.38-.87,6.77-1.68,10.15-2.52.3-.07.51-.11.49-.55a85.1,85.1,0,0,1,2.61-26.35,81.36,81.36,0,0,1,46.51-54.18,88.07,88.07,0,0,1,29.75-7.1,8.39,8.39,0,0,0,2.18-.19h1A4.67,4.67,0,0,0,238.8,41.89Z" fill="#fff"/>
      <path d="M238.8,41.89a4.67,4.67,0,0,1-2.23,0Z" fill="#fff"/>
      <path d="M175.7,179.87c0-.05,0-.13,0-.14s.07,0,.08.08Z" fill="#fff"/>
      <path d="M100.92,84.76c-.71,1.85-1.38,3.59-2.06,5.34L84.55,127.27a.74.74,0,0,1-.61.54q-5.47,1-10.94,2.08c-7,1.34-14,2.79-21,4.29l-6,1.32c.07-.21.13-.39.2-.56L71.91,74.53q6.5-15.26,13-30.51a.74.74,0,0,1,.8-.55H117a.78.78,0,0,1,.85.57q15.44,36.33,30.9,72.65c.05.11.1.24.16.35.13.27,0,.35-.24.39-1.64.21-3.28.43-4.92.67-3.29.46-6.58.92-9.87,1.41q-6.81,1-13.61,2c-1.45.22-2.9.42-4.34.71-.5.09-.63-.08-.78-.47q-6.91-18-13.85-36C101.22,85.51,101.09,85.2,100.92,84.76Z" fill="#fff"/>
    </g>
    <g>
      <path d="M238.8,41.89c.78,0,.78,0,.78.78v31.8c-.13,0-.26,0-.38,0a48.47,48.47,0,0,0-20.27,4.33,45.94,45.94,0,0,0-24.1,25.51,52,52,0,0,0-2.8,28.41,47.92,47.92,0,0,0,10.89,23.62c8.57,10,19.55,15.4,32.66,16.49,1.33.11,2.67.15,4,.22v34.7A90,90,0,0,1,220,205.59a83.86,83.86,0,0,1-20.61-7.45,81.68,81.68,0,0,1-20.47-15.08c-1.06-1.06-2.08-2.16-3.12-3.25,0-.05,0-.11-.08-.08s0,.09,0,.14.1.28.16.42l10.23,24.06c.27.62.27.62-.39.62q-18.94,0-37.88,0a.7.7,0,0,1-.79-.55q-6.17-16.05-12.35-32.09c-.15-.39-.29-.57-.77-.57h-66a.65.65,0,0,0-.72.49Q61,188.34,54.83,204.4A.74.74,0,0,1,54,205c-12.31,0-25.26,0-37.58,0-.22,0,9.37-22.05,13.94-32.76a1.19,1.19,0,0,1,.59-.75q13.79-6.12,27.83-11.6,16.52-6.43,33.34-12,13.63-4.51,27.42-8.49,12.12-3.49,24.33-6.6c3.38-.87,6.77-1.68,10.15-2.52.3-.07.51-.11.49-.55a85.1,85.1,0,0,1,2.61-26.35,81.36,81.36,0,0,1,46.51-54.18,88.07,88.07,0,0,1,29.75-7.1,8.39,8.39,0,0,0,2.18-.19h1A4.67,4.67,0,0,0,238.8,41.89Z" fill="#fff"/>
      <path d="M238.8,41.89a4.67,4.67,0,0,1-2.23,0Z" fill="#fff"/>
      <path d="M175.7,179.87c0-.05,0-.13,0-.14s.07,0,.08.08Z" fill="#fff"/>
      <path d="M100.92,84.76c-.71,1.85-1.38,3.59-2.06,5.34L84.55,127.27a.74.74,0,0,1-.61.54q-5.47,1-10.94,2.08c-7,1.34-14,2.79-21,4.29l-6,1.32c.07-.21.13-.39.2-.56L71.91,74.53q6.5-15.26,13-30.51a.74.74,0,0,1,.8-.55H117a.78.78,0,0,1,.85.57q15.44,36.33,30.9,72.65c.05.11.1.24.16.35.13.27,0,.35-.24.39-1.64.21-3.28.43-4.92.67-3.29.46-6.58.92-9.87,1.41q-6.81,1-13.61,2c-1.45.22-2.9.42-4.34.71-.5.09-.63-.08-.78-.47q-6.91-18-13.85-36C101.22,85.51,101.09,85.2,100.92,84.76Z" fill="#fff"/>
    </g>
  </g>
</svg>
