<svg id="Layer_1" data-name="Layer 1" xmlns="http://www.w3.org/2000/svg" viewBox="0 0 1440 750">
  <g opacity="0.1">
    <line x2="-750" y2="750" fill="none" stroke="#000" stroke-miterlimit="10" stroke-width="2"/>
    <line x1="22" x2="-728" y2="750" fill="none" stroke="#000" stroke-miterlimit="10" stroke-width="2"/>
    <line x1="44" x2="-706" y2="750" fill="none" stroke="#000" stroke-miterlimit="10" stroke-width="2"/>
    <line x1="66" x2="-684" y2="750" fill="none" stroke="#000" stroke-miterlimit="10" stroke-width="2"/>
    <line x1="88" x2="-662" y2="750" fill="none" stroke="#000" stroke-miterlimit="10" stroke-width="2"/>
    <line x1="110" x2="-640" y2="750" fill="none" stroke="#000" stroke-miterlimit="10" stroke-width="2"/>
    <line x1="132" x2="-618" y2="750" fill="none" stroke="#000" stroke-miterlimit="10" stroke-width="2"/>
    <line x1="154" x2="-596" y2="750" fill="none" stroke="#000" stroke-miterlimit="10" stroke-width="2"/>
    <line x1="176" x2="-574" y2="750" fill="none" stroke="#000" stroke-miterlimit="10" stroke-width="2"/>
    <line x1="198" x2="-552" y2="750" fill="none" stroke="#000" stroke-miterlimit="10" stroke-width="2"/>
    <line x1="220" x2="-530" y2="750" fill="none" stroke="#000" stroke-miterlimit="10" stroke-width="2"/>
    <line x1="242" x2="-508" y2="750" fill="none" stroke="#000" stroke-miterlimit="10" stroke-width="2"/>
    <line x1="264" x2="-486" y2="750" fill="none" stroke="#000" stroke-miterlimit="10" stroke-width="2"/>
    <line x1="286" x2="-464" y2="750" fill="none" stroke="#000" stroke-miterlimit="10" stroke-width="2"/>
    <line x1="308" x2="-442" y2="750" fill="none" stroke="#000" stroke-miterlimit="10" stroke-width="2"/>
    <line x1="330" x2="-420" y2="750" fill="none" stroke="#000" stroke-miterlimit="10" stroke-width="2"/>
    <line x1="352" x2="-398" y2="750" fill="none" stroke="#000" stroke-miterlimit="10" stroke-width="2"/>
    <line x1="374" x2="-376" y2="750" fill="none" stroke="#000" stroke-miterlimit="10" stroke-width="2"/>
    <line x1="396" x2="-354" y2="750" fill="none" stroke="#000" stroke-miterlimit="10" stroke-width="2"/>
    <line x1="418" x2="-332" y2="750" fill="none" stroke="#000" stroke-miterlimit="10" stroke-width="2"/>
    <line x1="440" x2="-310" y2="750" fill="none" stroke="#000" stroke-miterlimit="10" stroke-width="2"/>
    <line x1="462" x2="-288" y2="750" fill="none" stroke="#000" stroke-miterlimit="10" stroke-width="2"/>
    <line x1="484" x2="-266" y2="750" fill="none" stroke="#000" stroke-miterlimit="10" stroke-width="2"/>
    <line x1="506" x2="-244" y2="750" fill="none" stroke="#000" stroke-miterlimit="10" stroke-width="2"/>
    <line x1="528" x2="-222" y2="750" fill="none" stroke="#000" stroke-miterlimit="10" stroke-width="2"/>
    <line x1="550" x2="-200" y2="750" fill="none" stroke="#000" stroke-miterlimit="10" stroke-width="2"/>
    <line x1="572" x2="-178" y2="750" fill="none" stroke="#000" stroke-miterlimit="10" stroke-width="2"/>
    <line x1="594" x2="-156" y2="750" fill="none" stroke="#000" stroke-miterlimit="10" stroke-width="2"/>
    <line x1="616" x2="-134" y2="750" fill="none" stroke="#000" stroke-miterlimit="10" stroke-width="2"/>
    <line x1="638" x2="-112" y2="750" fill="none" stroke="#000" stroke-miterlimit="10" stroke-width="2"/>
    <line x1="660" x2="-90" y2="750" fill="none" stroke="#000" stroke-miterlimit="10" stroke-width="2"/>
    <line x1="682" x2="-68" y2="750" fill="none" stroke="#000" stroke-miterlimit="10" stroke-width="2"/>
    <line x1="704" x2="-46" y2="750" fill="none" stroke="#000" stroke-miterlimit="10" stroke-width="2"/>
    <line x1="726" x2="-24" y2="750" fill="none" stroke="#000" stroke-miterlimit="10" stroke-width="2"/>
    <line x1="748" x2="-2" y2="750" fill="none" stroke="#000" stroke-miterlimit="10" stroke-width="2"/>
    <line x1="770" x2="20" y2="750" fill="none" stroke="#000" stroke-miterlimit="10" stroke-width="2"/>
    <line x1="792" x2="42" y2="750" fill="none" stroke="#000" stroke-miterlimit="10" stroke-width="2"/>
    <line x1="814" x2="64" y2="750" fill="none" stroke="#000" stroke-miterlimit="10" stroke-width="2"/>
    <line x1="836" x2="86" y2="750" fill="none" stroke="#000" stroke-miterlimit="10" stroke-width="2"/>
    <line x1="858" x2="108" y2="750" fill="none" stroke="#000" stroke-miterlimit="10" stroke-width="2"/>
    <line x1="880" x2="130" y2="750" fill="none" stroke="#000" stroke-miterlimit="10" stroke-width="2"/>
    <line x1="902" x2="152" y2="750" fill="none" stroke="#000" stroke-miterlimit="10" stroke-width="2"/>
    <line x1="924" x2="174" y2="750" fill="none" stroke="#000" stroke-miterlimit="10" stroke-width="2"/>
    <line x1="946" x2="196" y2="750" fill="none" stroke="#000" stroke-miterlimit="10" stroke-width="2"/>
    <line x1="968" x2="218" y2="750" fill="none" stroke="#000" stroke-miterlimit="10" stroke-width="2"/>
    <line x1="990" x2="240" y2="750" fill="none" stroke="#000" stroke-miterlimit="10" stroke-width="2"/>
    <line x1="1012" x2="262" y2="750" fill="none" stroke="#000" stroke-miterlimit="10" stroke-width="2"/>
    <line x1="1034" x2="284" y2="750" fill="none" stroke="#000" stroke-miterlimit="10" stroke-width="2"/>
    <line x1="1056" x2="306" y2="750" fill="none" stroke="#000" stroke-miterlimit="10" stroke-width="2"/>
    <line x1="1078" x2="328" y2="750" fill="none" stroke="#000" stroke-miterlimit="10" stroke-width="2"/>
    <line x1="1100" x2="350" y2="750" fill="none" stroke="#000" stroke-miterlimit="10" stroke-width="2"/>
    <line x1="1122" x2="372" y2="750" fill="none" stroke="#000" stroke-miterlimit="10" stroke-width="2"/>
    <line x1="1144" x2="394" y2="750" fill="none" stroke="#000" stroke-miterlimit="10" stroke-width="2"/>
    <line x1="1166" x2="416" y2="750" fill="none" stroke="#000" stroke-miterlimit="10" stroke-width="2"/>
    <line x1="1188" x2="438" y2="750" fill="none" stroke="#000" stroke-miterlimit="10" stroke-width="2"/>
    <line x1="1210" x2="460" y2="750" fill="none" stroke="#000" stroke-miterlimit="10" stroke-width="2"/>
    <line x1="1232" x2="482" y2="750" fill="none" stroke="#000" stroke-miterlimit="10" stroke-width="2"/>
    <line x1="1254" x2="504" y2="750" fill="none" stroke="#000" stroke-miterlimit="10" stroke-width="2"/>
    <line x1="1276" x2="526" y2="750" fill="none" stroke="#000" stroke-miterlimit="10" stroke-width="2"/>
    <line x1="1298" x2="548" y2="750" fill="none" stroke="#000" stroke-miterlimit="10" stroke-width="2"/>
    <line x1="1320" x2="570" y2="750" fill="none" stroke="#000" stroke-miterlimit="10" stroke-width="2"/>
    <line x1="1342" x2="592" y2="750" fill="none" stroke="#000" stroke-miterlimit="10" stroke-width="2"/>
    <line x1="1364" x2="614" y2="750" fill="none" stroke="#000" stroke-miterlimit="10" stroke-width="2"/>
    <line x1="1386" x2="636" y2="750" fill="none" stroke="#000" stroke-miterlimit="10" stroke-width="2"/>
    <line x1="1408" x2="658" y2="750" fill="none" stroke="#000" stroke-miterlimit="10" stroke-width="2"/>
    <line x1="1430" x2="680" y2="750" fill="none" stroke="#000" stroke-miterlimit="10" stroke-width="2"/>
    <line x1="1452" x2="702" y2="750" fill="none" stroke="#000" stroke-miterlimit="10" stroke-width="2"/>
    <line x1="1474" x2="724" y2="750" fill="none" stroke="#000" stroke-miterlimit="10" stroke-width="2"/>
    <line x1="1496" x2="746" y2="750" fill="none" stroke="#000" stroke-miterlimit="10" stroke-width="2"/>
    <line x1="1518" x2="768" y2="750" fill="none" stroke="#000" stroke-miterlimit="10" stroke-width="2"/>
    <line x1="1540" x2="790" y2="750" fill="none" stroke="#000" stroke-miterlimit="10" stroke-width="2"/>
    <line x1="1562" x2="812" y2="750" fill="none" stroke="#000" stroke-miterlimit="10" stroke-width="2"/>
    <line x1="1584" x2="834" y2="750" fill="none" stroke="#000" stroke-miterlimit="10" stroke-width="2"/>
    <line x1="1606" x2="856" y2="750" fill="none" stroke="#000" stroke-miterlimit="10" stroke-width="2"/>
    <line x1="1628" x2="878" y2="750" fill="none" stroke="#000" stroke-miterlimit="10" stroke-width="2"/>
    <line x1="1650" x2="900" y2="750" fill="none" stroke="#000" stroke-miterlimit="10" stroke-width="2"/>
    <line x1="1672" x2="922" y2="750" fill="none" stroke="#000" stroke-miterlimit="10" stroke-width="2"/>
    <line x1="1694" x2="944" y2="750" fill="none" stroke="#000" stroke-miterlimit="10" stroke-width="2"/>
    <line x1="1716" x2="966" y2="750" fill="none" stroke="#000" stroke-miterlimit="10" stroke-width="2"/>
    <line x1="1738" x2="988" y2="750" fill="none" stroke="#000" stroke-miterlimit="10" stroke-width="2"/>
    <line x1="1760" x2="1010" y2="750" fill="none" stroke="#000" stroke-miterlimit="10" stroke-width="2"/>
    <line x1="1782" x2="1032" y2="750" fill="none" stroke="#000" stroke-miterlimit="10" stroke-width="2"/>
    <line x1="1804" x2="1054" y2="750" fill="none" stroke="#000" stroke-miterlimit="10" stroke-width="2"/>
    <line x1="1826" x2="1076" y2="750" fill="none" stroke="#000" stroke-miterlimit="10" stroke-width="2"/>
    <line x1="1848" x2="1098" y2="750" fill="none" stroke="#000" stroke-miterlimit="10" stroke-width="2"/>
    <line x1="1870" x2="1120" y2="750" fill="none" stroke="#000" stroke-miterlimit="10" stroke-width="2"/>
    <line x1="1892" x2="1142" y2="750" fill="none" stroke="#000" stroke-miterlimit="10" stroke-width="2"/>
    <line x1="1914" x2="1164" y2="750" fill="none" stroke="#000" stroke-miterlimit="10" stroke-width="2"/>
    <line x1="1936" x2="1186" y2="750" fill="none" stroke="#000" stroke-miterlimit="10" stroke-width="2"/>
    <line x1="1958" x2="1208" y2="750" fill="none" stroke="#000" stroke-miterlimit="10" stroke-width="2"/>
    <line x1="1980" x2="1230" y2="750" fill="none" stroke="#000" stroke-miterlimit="10" stroke-width="2"/>
    <line x1="2002" x2="1252" y2="750" fill="none" stroke="#000" stroke-miterlimit="10" stroke-width="2"/>
    <line x1="2024" x2="1274" y2="750" fill="none" stroke="#000" stroke-miterlimit="10" stroke-width="2"/>
    <line x1="2046" x2="1296" y2="750" fill="none" stroke="#000" stroke-miterlimit="10" stroke-width="2"/>
    <line x1="2068" x2="1318" y2="750" fill="none" stroke="#000" stroke-miterlimit="10" stroke-width="2"/>
    <line x1="2090" x2="1340" y2="750" fill="none" stroke="#000" stroke-miterlimit="10" stroke-width="2"/>
    <line x1="2112" x2="1362" y2="750" fill="none" stroke="#000" stroke-miterlimit="10" stroke-width="2"/>
    <line x1="2134" x2="1384" y2="750" fill="none" stroke="#000" stroke-miterlimit="10" stroke-width="2"/>
    <line x1="2156" x2="1406" y2="750" fill="none" stroke="#000" stroke-miterlimit="10" stroke-width="2"/>
    <line x1="2178" x2="1428" y2="750" fill="none" stroke="#000" stroke-miterlimit="10" stroke-width="2"/>
    <line x1="2178" y1="750" x2="1428" fill="none" stroke="#000" stroke-miterlimit="10" stroke-width="2"/>
    <line x1="2156" y1="750" x2="1406" fill="none" stroke="#000" stroke-miterlimit="10" stroke-width="2"/>
    <line x1="2134" y1="750" x2="1384" fill="none" stroke="#000" stroke-miterlimit="10" stroke-width="2"/>
    <line x1="2112" y1="750" x2="1362" fill="none" stroke="#000" stroke-miterlimit="10" stroke-width="2"/>
    <line x1="2090" y1="750" x2="1340" fill="none" stroke="#000" stroke-miterlimit="10" stroke-width="2"/>
    <line x1="2068" y1="750" x2="1318" fill="none" stroke="#000" stroke-miterlimit="10" stroke-width="2"/>
    <line x1="2046" y1="750" x2="1296" fill="none" stroke="#000" stroke-miterlimit="10" stroke-width="2"/>
    <line x1="2024" y1="750" x2="1274" fill="none" stroke="#000" stroke-miterlimit="10" stroke-width="2"/>
    <line x1="2002" y1="750" x2="1252" fill="none" stroke="#000" stroke-miterlimit="10" stroke-width="2"/>
    <line x1="1980" y1="750" x2="1230" fill="none" stroke="#000" stroke-miterlimit="10" stroke-width="2"/>
    <line x1="1958" y1="750" x2="1208" fill="none" stroke="#000" stroke-miterlimit="10" stroke-width="2"/>
    <line x1="1936" y1="750" x2="1186" fill="none" stroke="#000" stroke-miterlimit="10" stroke-width="2"/>
    <line x1="1914" y1="750" x2="1164" fill="none" stroke="#000" stroke-miterlimit="10" stroke-width="2"/>
    <line x1="1892" y1="750" x2="1142" fill="none" stroke="#000" stroke-miterlimit="10" stroke-width="2"/>
    <line x1="1870" y1="750" x2="1120" fill="none" stroke="#000" stroke-miterlimit="10" stroke-width="2"/>
    <line x1="1848" y1="750" x2="1098" fill="none" stroke="#000" stroke-miterlimit="10" stroke-width="2"/>
    <line x1="1826" y1="750" x2="1076" fill="none" stroke="#000" stroke-miterlimit="10" stroke-width="2"/>
    <line x1="1804" y1="750" x2="1054" fill="none" stroke="#000" stroke-miterlimit="10" stroke-width="2"/>
    <line x1="1782" y1="750" x2="1032" fill="none" stroke="#000" stroke-miterlimit="10" stroke-width="2"/>
    <line x1="1760" y1="750" x2="1010" fill="none" stroke="#000" stroke-miterlimit="10" stroke-width="2"/>
    <line x1="1738" y1="750" x2="988" fill="none" stroke="#000" stroke-miterlimit="10" stroke-width="2"/>
    <line x1="1716" y1="750" x2="966" fill="none" stroke="#000" stroke-miterlimit="10" stroke-width="2"/>
    <line x1="1694" y1="750" x2="944" fill="none" stroke="#000" stroke-miterlimit="10" stroke-width="2"/>
    <line x1="1672" y1="750" x2="922" fill="none" stroke="#000" stroke-miterlimit="10" stroke-width="2"/>
    <line x1="1650" y1="750" x2="900" fill="none" stroke="#000" stroke-miterlimit="10" stroke-width="2"/>
    <line x1="1628" y1="750" x2="878" fill="none" stroke="#000" stroke-miterlimit="10" stroke-width="2"/>
    <line x1="1606" y1="750" x2="856" fill="none" stroke="#000" stroke-miterlimit="10" stroke-width="2"/>
    <line x1="1584" y1="750" x2="834" fill="none" stroke="#000" stroke-miterlimit="10" stroke-width="2"/>
    <line x1="1562" y1="750" x2="812" fill="none" stroke="#000" stroke-miterlimit="10" stroke-width="2"/>
    <line x1="1540" y1="750" x2="790" fill="none" stroke="#000" stroke-miterlimit="10" stroke-width="2"/>
    <line x1="1518" y1="750" x2="768" fill="none" stroke="#000" stroke-miterlimit="10" stroke-width="2"/>
    <line x1="1496" y1="750" x2="746" fill="none" stroke="#000" stroke-miterlimit="10" stroke-width="2"/>
    <line x1="1474" y1="750" x2="724" fill="none" stroke="#000" stroke-miterlimit="10" stroke-width="2"/>
    <line x1="1452" y1="750" x2="702" fill="none" stroke="#000" stroke-miterlimit="10" stroke-width="2"/>
    <line x1="1430" y1="750" x2="680" fill="none" stroke="#000" stroke-miterlimit="10" stroke-width="2"/>
    <line x1="1408" y1="750" x2="658" fill="none" stroke="#000" stroke-miterlimit="10" stroke-width="2"/>
    <line x1="1386" y1="750" x2="636" fill="none" stroke="#000" stroke-miterlimit="10" stroke-width="2"/>
    <line x1="1364" y1="750" x2="614" fill="none" stroke="#000" stroke-miterlimit="10" stroke-width="2"/>
    <line x1="1342" y1="750" x2="592" fill="none" stroke="#000" stroke-miterlimit="10" stroke-width="2"/>
    <line x1="1320" y1="750" x2="570" fill="none" stroke="#000" stroke-miterlimit="10" stroke-width="2"/>
    <line x1="1298" y1="750" x2="548" fill="none" stroke="#000" stroke-miterlimit="10" stroke-width="2"/>
    <line x1="1276" y1="750" x2="526" fill="none" stroke="#000" stroke-miterlimit="10" stroke-width="2"/>
    <line x1="1254" y1="750" x2="504" fill="none" stroke="#000" stroke-miterlimit="10" stroke-width="2"/>
    <line x1="1232" y1="750" x2="482" fill="none" stroke="#000" stroke-miterlimit="10" stroke-width="2"/>
    <line x1="1210" y1="750" x2="460" fill="none" stroke="#000" stroke-miterlimit="10" stroke-width="2"/>
    <line x1="1188" y1="750" x2="438" fill="none" stroke="#000" stroke-miterlimit="10" stroke-width="2"/>
    <line x1="1166" y1="750" x2="416" fill="none" stroke="#000" stroke-miterlimit="10" stroke-width="2"/>
    <line x1="1144" y1="750" x2="394" fill="none" stroke="#000" stroke-miterlimit="10" stroke-width="2"/>
    <line x1="1122" y1="750" x2="372" fill="none" stroke="#000" stroke-miterlimit="10" stroke-width="2"/>
    <line x1="1100" y1="750" x2="350" fill="none" stroke="#000" stroke-miterlimit="10" stroke-width="2"/>
    <line x1="1078" y1="750" x2="328" fill="none" stroke="#000" stroke-miterlimit="10" stroke-width="2"/>
    <line x1="1056" y1="750" x2="306" fill="none" stroke="#000" stroke-miterlimit="10" stroke-width="2"/>
    <line x1="1034" y1="750" x2="284" fill="none" stroke="#000" stroke-miterlimit="10" stroke-width="2"/>
    <line x1="1012" y1="750" x2="262" fill="none" stroke="#000" stroke-miterlimit="10" stroke-width="2"/>
    <line x1="990" y1="750" x2="240" fill="none" stroke="#000" stroke-miterlimit="10" stroke-width="2"/>
    <line x1="968" y1="750" x2="218" fill="none" stroke="#000" stroke-miterlimit="10" stroke-width="2"/>
    <line x1="946" y1="750" x2="196" fill="none" stroke="#000" stroke-miterlimit="10" stroke-width="2"/>
    <line x1="924" y1="750" x2="174" fill="none" stroke="#000" stroke-miterlimit="10" stroke-width="2"/>
    <line x1="902" y1="750" x2="152" fill="none" stroke="#000" stroke-miterlimit="10" stroke-width="2"/>
    <line x1="880" y1="750" x2="130" fill="none" stroke="#000" stroke-miterlimit="10" stroke-width="2"/>
    <line x1="858" y1="750" x2="108" fill="none" stroke="#000" stroke-miterlimit="10" stroke-width="2"/>
    <line x1="836" y1="750" x2="86" fill="none" stroke="#000" stroke-miterlimit="10" stroke-width="2"/>
    <line x1="814" y1="750" x2="64" fill="none" stroke="#000" stroke-miterlimit="10" stroke-width="2"/>
    <line x1="792" y1="750" x2="42" fill="none" stroke="#000" stroke-miterlimit="10" stroke-width="2"/>
    <line x1="770" y1="750" x2="20" fill="none" stroke="#000" stroke-miterlimit="10" stroke-width="2"/>
    <line x1="748" y1="750" x2="-2" fill="none" stroke="#000" stroke-miterlimit="10" stroke-width="2"/>
    <line x1="726" y1="750" x2="-24" fill="none" stroke="#000" stroke-miterlimit="10" stroke-width="2"/>
    <line x1="704" y1="750" x2="-46" fill="none" stroke="#000" stroke-miterlimit="10" stroke-width="2"/>
    <line x1="682" y1="750" x2="-68" fill="none" stroke="#000" stroke-miterlimit="10" stroke-width="2"/>
    <line x1="660" y1="750" x2="-90" fill="none" stroke="#000" stroke-miterlimit="10" stroke-width="2"/>
    <line x1="638" y1="750" x2="-112" fill="none" stroke="#000" stroke-miterlimit="10" stroke-width="2"/>
    <line x1="616" y1="750" x2="-134" fill="none" stroke="#000" stroke-miterlimit="10" stroke-width="2"/>
    <line x1="594" y1="750" x2="-156" fill="none" stroke="#000" stroke-miterlimit="10" stroke-width="2"/>
    <line x1="572" y1="750" x2="-178" fill="none" stroke="#000" stroke-miterlimit="10" stroke-width="2"/>
    <line x1="550" y1="750" x2="-200" fill="none" stroke="#000" stroke-miterlimit="10" stroke-width="2"/>
    <line x1="528" y1="750" x2="-222" fill="none" stroke="#000" stroke-miterlimit="10" stroke-width="2"/>
    <line x1="506" y1="750" x2="-244" fill="none" stroke="#000" stroke-miterlimit="10" stroke-width="2"/>
    <line x1="484" y1="750" x2="-266" fill="none" stroke="#000" stroke-miterlimit="10" stroke-width="2"/>
    <line x1="462" y1="750" x2="-288" fill="none" stroke="#000" stroke-miterlimit="10" stroke-width="2"/>
    <line x1="440" y1="750" x2="-310" fill="none" stroke="#000" stroke-miterlimit="10" stroke-width="2"/>
    <line x1="418" y1="750" x2="-332" fill="none" stroke="#000" stroke-miterlimit="10" stroke-width="2"/>
    <line x1="396" y1="750" x2="-354" fill="none" stroke="#000" stroke-miterlimit="10" stroke-width="2"/>
    <line x1="374" y1="750" x2="-376" fill="none" stroke="#000" stroke-miterlimit="10" stroke-width="2"/>
    <line x1="352" y1="750" x2="-398" fill="none" stroke="#000" stroke-miterlimit="10" stroke-width="2"/>
    <line x1="330" y1="750" x2="-420" fill="none" stroke="#000" stroke-miterlimit="10" stroke-width="2"/>
    <line x1="308" y1="750" x2="-442" fill="none" stroke="#000" stroke-miterlimit="10" stroke-width="2"/>
    <line x1="286" y1="750" x2="-464" fill="none" stroke="#000" stroke-miterlimit="10" stroke-width="2"/>
    <line x1="264" y1="750" x2="-486" fill="none" stroke="#000" stroke-miterlimit="10" stroke-width="2"/>
    <line x1="242" y1="750" x2="-508" fill="none" stroke="#000" stroke-miterlimit="10" stroke-width="2"/>
    <line x1="220" y1="750" x2="-530" fill="none" stroke="#000" stroke-miterlimit="10" stroke-width="2"/>
    <line x1="198" y1="750" x2="-552" fill="none" stroke="#000" stroke-miterlimit="10" stroke-width="2"/>
    <line x1="176" y1="750" x2="-574" fill="none" stroke="#000" stroke-miterlimit="10" stroke-width="2"/>
    <line x1="154" y1="750" x2="-596" fill="none" stroke="#000" stroke-miterlimit="10" stroke-width="2"/>
    <line x1="132" y1="750" x2="-618" fill="none" stroke="#000" stroke-miterlimit="10" stroke-width="2"/>
    <line x1="110" y1="750" x2="-640" fill="none" stroke="#000" stroke-miterlimit="10" stroke-width="2"/>
    <line x1="88" y1="750" x2="-662" fill="none" stroke="#000" stroke-miterlimit="10" stroke-width="2"/>
    <line x1="66" y1="750" x2="-684" fill="none" stroke="#000" stroke-miterlimit="10" stroke-width="2"/>
    <line x1="44" y1="750" x2="-706" fill="none" stroke="#000" stroke-miterlimit="10" stroke-width="2"/>
    <line x1="22" y1="750" x2="-728" fill="none" stroke="#000" stroke-miterlimit="10" stroke-width="2"/>
    <line y1="750" x2="-750" fill="none" stroke="#000" stroke-miterlimit="10" stroke-width="2"/>
  </g>
</svg>
