<svg id="Layer_1" data-name="Layer 1" xmlns="http://www.w3.org/2000/svg" viewBox="0 0 1922 1082">
  <g opacity="0.15">
    <path d="M-337,291c35-350,117-483,604-522s869-96,1069-210,232-175,461-156" fill="none" stroke="#000" stroke-linecap="round" stroke-linejoin="round" stroke-width="4" stroke-dasharray="0 10"/>
    <path d="M-342.68,313c48.36-348.64,126.27-488.31,618.76-518.08s860.56-66,1070.36-197.56c198.26-124.31,235-189.12,464.16-169.48" fill="none" stroke="#000" stroke-linecap="round" stroke-linejoin="round" stroke-width="4" stroke-dasharray="0 10"/>
    <path d="M-348.36,335c61.72-347.28,135.54-493.62,633.52-514.16s852.1-35.55,1071.72-185.12c196.71-134,238.06-203.24,467.31-183" fill="none" stroke="#000" stroke-linecap="round" stroke-linejoin="round" stroke-width="4" stroke-dasharray="0 10"/>
    <path d="M-354,357C-279,11.08-209.23-141.93,294.24-153.24s843.7-4.68,1073.08-172.68c195.36-143.08,241.1-217.36,470.47-196.44" fill="none" stroke="#000" stroke-linecap="round" stroke-linejoin="round" stroke-width="4" stroke-dasharray="0 10"/>
    <path d="M-359.72,379c88.44-344.56,154.08-504.24,663-506.32s835.41,26.56,1074.44-160.24C1572-439.34,1621.89-519,1851.38-497.48" fill="none" stroke="#000" stroke-linecap="round" stroke-linejoin="round" stroke-width="4" stroke-dasharray="0 10"/>
    <path d="M-365.4,401C-263.6,57.8-202-108.55,312.4-101.4,827-94.2,1139.67-43.26,1388.2-249.2,1581.46-409.33,1635.36-494.8,1865-472.6" fill="none" stroke="#000" stroke-linecap="round" stroke-linejoin="round" stroke-width="4" stroke-dasharray="0 10"/>
    <path d="M-371.08,423C-255.92,81.16-198.45-91.86,321.48-75.48c520.12,16.44,819.3,90,1077.16-135.36,192.48-168.22,250.19-259.72,479.94-236.88" fill="none" stroke="#000" stroke-linecap="round" stroke-linejoin="round" stroke-width="4" stroke-dasharray="0 10"/>
    <path d="M-376.76,445C-248.24,104.52-194.86-75.17,330.56-49.56,856.2-23.88,1142.08,72.57,1409.08-172.48c191.86-176.08,253.23-273.84,483.09-250.36" fill="none" stroke="#000" stroke-linecap="round" stroke-linejoin="round" stroke-width="4" stroke-dasharray="0 10"/>
    <path d="M-382.44,467C-240.56,127.88-191.27-58.48,339.64-23.64,870.8,11.28,1143.58,130.84,1419.52-134.12c191.39-183.77,256.26-288,486.25-263.84" fill="none" stroke="#000" stroke-linecap="round" stroke-linejoin="round" stroke-width="4" stroke-dasharray="0 10"/>
    <path d="M-388.12,489C-232.88,151.24-187.68-41.79,348.72,2.28c536.68,44.16,796.56,187,1081.24-98,191.06-191.33,259.29-302.08,489.4-277.32" fill="none" stroke="#000" stroke-linecap="round" stroke-linejoin="round" stroke-width="4" stroke-dasharray="0 10"/>
    <path d="M-393.8,511C-225.2,174.6-184.09-25.11,357.8,28.2,900,81.6,1147.18,248,1440.4-57.4,1631.25-256.17,1702.72-373.6,1933-348.2" fill="none" stroke="#000" stroke-linecap="round" stroke-linejoin="round" stroke-width="4" stroke-dasharray="0 10"/>
    <path d="M-399.48,533c182-335,219-541.42,766.36-478.88,547.72,62.64,782.4,252.69,1084-73.16,190.76-206.12,265.35-330.32,495.72-304.28" fill="none" stroke="#000" stroke-linecap="round" stroke-linejoin="round" stroke-width="4" stroke-dasharray="0 10"/>
    <path d="M-405.16,555C-209.84,221.32-176.91,8.27,376,80c553.24,71.88,775.61,285.73,1085.32-60.72,190.77-213.4,268.39-344.44,498.87-317.76" fill="none" stroke="#000" stroke-linecap="round" stroke-linejoin="round" stroke-width="4" stroke-dasharray="0 10"/>
    <path d="M-410.84,577C-202.16,244.68-173.32,25,385,106c558.76,81.12,769,318.91,1086.68-48.28,190.87-220.63,271.42-358.56,502-331.24" fill="none" stroke="#000" stroke-linecap="round" stroke-linejoin="round" stroke-width="4" stroke-dasharray="0 10"/>
    <path d="M-416.52,599c222-331,246.79-557.35,810.64-467.12,564.28,90.36,762.6,352.19,1088-35.84,191.06-227.81,274.45-372.68,505.19-344.72" fill="none" stroke="#000" stroke-linecap="round" stroke-linejoin="round" stroke-width="4" stroke-dasharray="0 10"/>
    <path d="M-422.2,621C-186.8,291.4-166.14,58.34,403.2,157.8c569.8,99.6,756.36,385.58,1089.4-23.4,191.34-235,277.48-386.8,508.34-358.2" fill="none" stroke="#000" stroke-linecap="round" stroke-linejoin="round" stroke-width="4" stroke-dasharray="0 10"/>
    <path d="M-427.88,643C-179.12,314.76-162.55,75,412.28,183.72c575.32,108.84,750.29,419.05,1090.76-11,191.68-242.09,280.51-400.92,511.5-371.68" fill="none" stroke="#000" stroke-linecap="round" stroke-linejoin="round" stroke-width="4" stroke-dasharray="0 10"/>
    <path d="M-433.56,665C-171.44,338.12-159,91.72,421.36,209.64c580.84,118.08,744.38,452.61,1092.12,1.48C1705.57-38.08,1797-203.92,2028.13-174" fill="none" stroke="#000" stroke-linecap="round" stroke-linejoin="round" stroke-width="4" stroke-dasharray="0 10"/>
    <path d="M-439.24,687c275.48-325.52,283.88-578.59,869.68-451.44,586.36,127.32,738.62,486.23,1093.48,13.92C1716.48-6.81,1810.5-179.68,2041.73-149.16" fill="none" stroke="#000" stroke-linecap="round" stroke-linejoin="round" stroke-width="4" stroke-dasharray="0 10"/>
    <path d="M-444.92,709c288.84-324.16,293.15-583.9,884.44-447.52,591.88,136.56,733,519.92,1094.84,26.36,193.08-263.38,289.61-443.28,521-412.12" fill="none" stroke="#000" stroke-linecap="round" stroke-linejoin="round" stroke-width="4" stroke-dasharray="0 10"/>
    <path d="M-450.6,731c302.2-322.8,302.42-589.21,899.2-443.6,597.4,145.8,727.54,553.66,1096.2,38.8,193.66-270.45,292.64-457.4,524.12-425.6" fill="none" stroke="#000" stroke-linecap="round" stroke-linejoin="round" stroke-width="4" stroke-dasharray="0 10"/>
    <path d="M-456.28,753c315.56-321.44,311.69-594.52,914-439.68,602.92,155,722.19,587.45,1097.56,51.24C1749.52,87,1850.92-107,2082.52-74.52" fill="none" stroke="#000" stroke-linecap="round" stroke-linejoin="round" stroke-width="4" stroke-dasharray="0 10"/>
    <path d="M-462,775C-133,454.92-141,175.17,466.76,339.24c608.44,164.28,717,621.28,1098.92,63.68,195-284.61,298.71-485.64,530.43-452.56" fill="none" stroke="#000" stroke-linecap="round" stroke-linejoin="round" stroke-width="4" stroke-dasharray="0 10"/>
    <path d="M-467.64,797c342.28-318.72,330.23-605.14,943.48-431.84,614,173.52,711.87,655.16,1100.28,76.12,195.66-291.68,301.74-499.76,533.59-466" fill="none" stroke="#000" stroke-linecap="round" stroke-linejoin="round" stroke-width="4" stroke-dasharray="0 10"/>
    <path d="M-473.32,819c355.64-317.36,339.5-610.45,958.24-427.92,619.48,182.76,706.88,689.06,1101.64,88.56C1783,180.87,1891.33-34.24,2123.31.12" fill="none" stroke="#000" stroke-linecap="round" stroke-linejoin="round" stroke-width="4" stroke-dasharray="0 10"/>
    <path d="M-479,841c369-316,348.77-615.76,973-424,625,192,702,723,1103,101,197.18-305.85,307.8-528,539.9-493" fill="none" stroke="#000" stroke-linecap="round" stroke-linejoin="round" stroke-width="4" stroke-dasharray="0 10"/>
    <path d="M-455.33,863.89c356-312.08,361.9-600.73,975.4-407.88,614.24,193.08,690.06,688.88,1082.48,90.24C1797,249.62,1920.48,47.09,2143.81,59.49" fill="none" stroke="#000" stroke-linecap="round" stroke-linejoin="round" stroke-width="4" stroke-dasharray="0 10"/>
    <path d="M-431.66,886.79c342.92-308.16,375-585.7,977.8-391.76,603.48,194.16,678.18,654.76,1062,79.48C1799.84,287.08,1936.16,104.19,2150.73,94" fill="none" stroke="#000" stroke-linecap="round" stroke-linejoin="round" stroke-width="4" stroke-dasharray="0 10"/>
    <path d="M-408,909.68C-78.12,605.44-19.84,339,572.2,534c592.72,195.24,666.38,620.66,1041.44,68.72,189.07-278.23,338.19-441.48,544-474.28" fill="none" stroke="#000" stroke-linecap="round" stroke-linejoin="round" stroke-width="4" stroke-dasharray="0 10"/>
    <path d="M-384.33,932.58C-67.49,632.26,17,376.93,598.27,573.06c582,196.32,654.65,586.58,1020.92,58,186.41-269,348.32-412.64,545.36-468" fill="none" stroke="#000" stroke-linecap="round" stroke-linejoin="round" stroke-width="4" stroke-dasharray="0 10"/>
    <path d="M-360.66,955.47c303.8-296.4,414.42-540.61,985-343.4,571.2,197.4,643,552.52,1000.4,47.2,183.78-259.84,358.44-383.8,546.72-461.8" fill="none" stroke="#000" stroke-linecap="round" stroke-linejoin="round" stroke-width="4" stroke-dasharray="0 10"/>
    <path d="M-337,978.36C-46.23,685.88,90.55,452.78,650.41,651.08c560.44,198.48,631.43,518.49,979.88,36.44,181.18-250.65,368.57-355,548.08-455.56" fill="none" stroke="#000" stroke-linecap="round" stroke-linejoin="round" stroke-width="4" stroke-dasharray="0 10"/>
    <path d="M-313.32,1001.26C-35.6,712.7,127.35,490.71,676.48,690.1c549.68,199.56,620,484.47,959.36,25.68,178.62-241.47,378.69-326.12,549.45-449.32" fill="none" stroke="#000" stroke-linecap="round" stroke-linejoin="round" stroke-width="4" stroke-dasharray="0 10"/>
    <path d="M-289.66,1024.15c264.68-284.64,453.81-495.52,992.2-295,538.92,200.64,608.61,450.5,938.84,14.92C1817.49,511.75,2030.21,446.75,2192.2,301" fill="none" stroke="#000" stroke-linecap="round" stroke-linejoin="round" stroke-width="4" stroke-dasharray="0 10"/>
    <path d="M-266,1047C-14.35,766.32,201,566.56,728.61,768.12c528.16,201.72,597.37,416.57,918.32,4.16,173.63-223.1,399-268.44,552.18-436.84" fill="none" stroke="#000" stroke-linecap="round" stroke-linejoin="round" stroke-width="4" stroke-dasharray="0 10"/>
    <path d="M-242.32,1069.94c238.6-276.8,480.06-465.46,997-262.8,517.4,202.8,586.25,382.68,897.8-6.6,171.2-213.92,409.08-239.6,553.54-430.6" fill="none" stroke="#000" stroke-linecap="round" stroke-linejoin="round" stroke-width="4" stroke-dasharray="0 10"/>
    <path d="M-218.65,1092.83C6.91,820,274.54,642.4,780.75,846.15,1287.39,1050,1356,1195,1658,828.79c168.83-204.72,419.21-210.76,554.9-424.36" fill="none" stroke="#000" stroke-linecap="round" stroke-linejoin="round" stroke-width="4" stroke-dasharray="0 10"/>
    <path d="M-195,1115.73c212.52-269,506.33-435.4,1001.8-230.56,495.88,205,564.44,315.08,856.76-28.12,166.53-195.52,429.34-181.92,556.27-418.12" fill="none" stroke="#000" stroke-linecap="round" stroke-linejoin="round" stroke-width="4" stroke-dasharray="0 10"/>
    <path d="M-171.32,1138.62c199.48-265,519.45-420.37,1004.2-214.44,485.12,206,553.77,281.4,836.24-38.88C1833.41,699,2108.59,732.22,2226.76,473.42" fill="none" stroke="#000" stroke-linecap="round" stroke-linejoin="round" stroke-width="4" stroke-dasharray="0 10"/>
    <path d="M-147.65,1161.51C38.79,900.39,384.93,756.18,859,963.19c474.36,207.12,543.29,247.82,815.72-49.64,162.14-177,449.59-124.24,559-405.64" fill="none" stroke="#000" stroke-linecap="round" stroke-linejoin="round" stroke-width="4" stroke-dasharray="0 10"/>
    <path d="M-124,1184.41c173.4-257.2,545.71-390.31,1009-182.2,463.6,208.2,533,214.35,795.2-60.4,160.07-167.74,459.72-95.4,560.36-399.4" fill="none" stroke="#000" stroke-linecap="round" stroke-linejoin="round" stroke-width="4" stroke-dasharray="0 10"/>
    <path d="M-100.31,1207.3C60.05,954,458.52,832,911.09,1041.22c452.84,209.28,522.91,181,774.68-71.16,158.12-158.38,469.85-66.56,561.72-393.16" fill="none" stroke="#000" stroke-linecap="round" stroke-linejoin="round" stroke-width="4" stroke-dasharray="0 10"/>
    <path d="M-76.65,1230.19c147.32-249.36,572-360.24,1013.8-150,442.08,210.36,513.07,147.87,754.16-81.92,156.29-148.94,480-37.72,563.09-386.92" fill="none" stroke="#000" stroke-linecap="round" stroke-linejoin="round" stroke-width="4" stroke-dasharray="0 10"/>
    <path d="M-53,1253.09c134.28-245.44,585.1-345.22,1016.2-133.84,431.32,211.44,503.45,114.91,733.64-92.68,154.59-139.41,490.11-8.88,564.46-380.68" fill="none" stroke="#000" stroke-linecap="round" stroke-linejoin="round" stroke-width="4" stroke-dasharray="0 10"/>
    <path d="M-29.31,1276C91.93,1034.46,568.92,945.8,989.29,1158.26c420.56,212.52,494.09,82.2,713.12-103.44,153-129.71,500.23,20,565.82-374.44" fill="none" stroke="#000" stroke-linecap="round" stroke-linejoin="round" stroke-width="4" stroke-dasharray="0 10"/>
    <path d="M-5.64,1298.88c108.2-237.6,611.35-315.16,1021-101.6,409.8,213.6,485,49.79,692.6-114.2,151.68-119.81,510.36,48.8,567.18-368.2" fill="none" stroke="#000" stroke-linecap="round" stroke-linejoin="round" stroke-width="4" stroke-dasharray="0 10"/>
    <path d="M18,1321.77c95.16-233.68,624.48-300.12,1023.4-85.48s476.12,17.75,672.08-125C1864,1001.72,2234,1189,2282.05,749.37" fill="none" stroke="#000" stroke-linecap="round" stroke-linejoin="round" stroke-width="4" stroke-dasharray="0 10"/>
    <path d="M41.69,1344.66c82.12-229.76,637.62-285.09,1025.8-69.36s467.49-13.85,651.56-135.72c149.57-99,530.62,106.48,569.91-355.72" fill="none" stroke="#000" stroke-linecap="round" stroke-linejoin="round" stroke-width="4" stroke-dasharray="0 10"/>
    <path d="M65.36,1367.56c69.08-225.84,650.74-270.06,1028.2-53.24s459-44.92,631-146.48c148.85-87.88,540.75,135.32,571.27-349.48" fill="none" stroke="#000" stroke-linecap="round" stroke-linejoin="round" stroke-width="4" stroke-dasharray="0 10"/>
    <path d="M89,1390.45c56-221.92,663.87-255,1030.6-37.12s450.58-75.34,610.52-157.24c148.35-76,550.87,164.16,572.64-343.24" fill="none" stroke="#000" stroke-linecap="round" stroke-linejoin="round" stroke-width="4" stroke-dasharray="0 10"/>
    <path d="M112.7,1413.34c43-218,677-240,1033-21s442-105,590-168,561,193,574-337" fill="none" stroke="#000" stroke-linecap="round" stroke-linejoin="round" stroke-width="4" stroke-dasharray="0 10"/>
  </g>
</svg>
