<svg id="Layer_1" data-name="Layer 1" xmlns="http://www.w3.org/2000/svg" xmlns:xlink="http://www.w3.org/1999/xlink" viewBox="0 0 256 249.6">
  <defs>
    <linearGradient id="New_Gradient_Swatch_1" data-name="New Gradient Swatch 1" x1="268.22" y1="175.84" x2="-13.55" y2="73.28" gradientUnits="userSpaceOnUse">
      <stop offset="0" stop-color="#8dcf54"/>
      <stop offset="0.33" stop-color="#54cfa9"/>
      <stop offset="0.67" stop-color="#54c6cf"/>
      <stop offset="1" stop-color="#54a9cf"/>
    </linearGradient>
  </defs>
  <path d="M210.66,0H45.34A45.29,45.29,0,0,0,0,45.34V204.26A45.29,45.29,0,0,0,45.34,249.6H210.66A45.29,45.29,0,0,0,256,204.26V45.34A45.29,45.29,0,0,0,210.66,0ZM77.72,207.36H76c-16.32,0-22.81-8.77-22.81-25.09v-2.76H71v4.32c0,6.84,1.79,8.76,6.12,8.76,4.8,0,5.88-1.68,5.88-8,0-6.6-1.08-7.56-11.17-13-11.76-6.36-18.48-11.4-18.48-26.16,0-15.73,8.4-23,23.05-23h1c16,0,23,9,23,25.09v2.16H82.64v-3.73c0-6.72-1.8-8.88-6.12-8.88-4,0-5.89,2-5.89,7.32,0,6.36,4.57,8.77,11.17,12.25,12.37,6.59,18.73,10.32,18.73,26.52C100.53,199.55,93.68,207.36,77.72,207.36Zm63-1.68h-27L101.85,124h18l7.68,62.79h.72L135.71,124h17Zm62.3-49.7H186.24v-9.13c0-6.6-1.79-9.12-6.12-9.12s-6.12,2.52-6.12,9.12v35.66c0,6.48,1.8,9.36,6.12,9.36s6.12-2.88,6.12-9.36v-4.92H179.4V163.06h23.65v18.12c0,17-6.72,26.18-22.08,26.18h-1.69c-16.32,0-23.29-9.13-23.29-26.18V148.66c0-17.54,7.8-26.29,23.65-26.29h1c15.12,0,22.45,8.75,22.45,26.29ZM42.47,115c0-.2,0-.4,0-.61A14.5,14.5,0,0,1,67.2,104.11h34.56L76.33,78.69h0A14.51,14.51,0,1,1,92.7,64.29v0l24.43,24.43v-36a14.49,14.49,0,1,1,21.75,1.42V88.74L164.3,63.31h0A14.51,14.51,0,1,1,178.7,79.68h0l-24.44,24.43h36A14.48,14.48,0,0,1,213.54,115Z" fill="url(#New_Gradient_Swatch_1)"/>
</svg>
